<?xml version="1.0" encoding="iso-8859-1"?>
<!-- Generator: Adobe Illustrator 19.0.0, SVG Export Plug-In . SVG Version: 6.00 Build 0)  -->
<svg version="1.1" id="Capa_1" xmlns="http://www.w3.org/2000/svg" xmlns:xlink="http://www.w3.org/1999/xlink" x="0px" y="0px"
	 viewBox="0 0 511.99 511.99" style="enable-background:new 0 0 511.99 511.99;" xml:space="preserve">
<path style="fill:#303C42;" d="M391.543,397.543l-71.339-196.188l21.062-189.521c0.531-4.781-2.208-9.323-6.677-11.093
	c-4.459-1.751-9.564-0.324-12.459,3.52l-128,170.667c-0.687,0.917-1.229,1.937-1.583,3.021l-73.28,219.838
	c-36.294,8.469-76.606,23.753-76.606,50.204c0,42.02,107.324,64,213.333,64c106.01,0,213.333-21.98,213.333-64
	C469.328,421.332,428.342,406.001,391.543,397.543z"/>
<g>
	<path style="fill:#9B4888;" d="M111.277,421.751c-38.247,10.641-47.283,22.216-47.283,26.238c0,14.479,67.772,42.667,192,42.667
		s192-28.188,192-42.667c0-4.047-9.152-15.656-47.678-26.315l4.366,12.003c2.022,5.542-0.844,11.656-6.375,13.665
		c-1.207,0.438-2.439,0.647-3.646,0.647c-4.354,0-8.448-2.689-10.021-7.021l-20.72-56.979h-67.224
		c-4.418,12.388-16.147,21.333-30.035,21.333h-21.333c-13.888,0-25.617-8.945-30.035-21.333h-68.948l-18.902,56.708
		c-1.854,5.594-7.835,8.635-13.49,6.738c-5.583-1.853-8.604-7.895-6.74-13.488L111.277,421.751z"/>
	<path style="fill:#9B4888;" d="M153.456,362.656h61.837c4.418-12.388,16.147-21.333,30.035-21.333h21.333
		c13.888,0,25.617,8.945,30.035,21.333h59.466l-56.855-156.354c-0.563-1.543-0.762-3.198-0.585-4.824l17.022-153.156
		L212.233,186.333L153.456,362.656z"/>
</g>
<path style="fill:#FF8F00;" d="M245.328,362.656c-5.885,0-10.667,4.78-10.667,10.667c0,5.885,4.781,10.667,10.667,10.667h21.333
	c5.885,0,10.667-4.781,10.667-10.667c0-5.887-4.781-10.667-10.667-10.667H245.328z"/>
<g style="opacity:0.2;">
	<path style="fill:#FFFFFF;" d="M153.456,362.656h38.71l26.613-133.781c3.456-17.374,9.596-34.102,18.198-49.587L292.57,79.221
		l-80.337,107.112L153.456,362.656z"/>
	<path style="fill:#FFFFFF;" d="M127.443,440.698c-1.501,4.531-5.721,7.23-10.272,7.145l0.158,0.147c0,0,19.456,8.138,55.005,14.363
		l15.589-78.363h-41.577L127.443,440.698z"/>
	<path style="opacity:0.2;fill:#FFFFFF;enable-background:new    ;" d="M153.456,362.656h38.71l26.613-133.781
		c3.456-17.374,9.596-34.102,18.198-49.587L292.57,79.221l-80.337,107.112L153.456,362.656z"/>
	<path style="opacity:0.2;fill:#FFFFFF;enable-background:new    ;" d="M127.443,440.698c-1.501,4.531-5.721,7.23-10.272,7.145
		l0.158,0.147c0,0,19.456,8.138,55.005,14.363l15.589-78.363h-41.577L127.443,440.698z"/>
</g>
<path style="opacity:0.1;enable-background:new    ;" d="M286.348,240.237l29.38,122.419h40.435l-56.855-156.354
	c-0.563-1.543-0.762-3.198-0.585-4.824l14.051-126.424l-25.1,90.365C280.888,189.841,280.432,215.589,286.348,240.237z"/>
<path style="opacity:0.1;enable-background:new    ;" d="M447.995,447.99c0-4.047-9.152-15.656-47.678-26.315l4.366,12.003
	c2.022,5.542-0.844,11.656-6.375,13.665c-1.207,0.438-2.439,0.647-3.646,0.647c-4.354,0-8.448-2.689-10.021-7.021l-20.72-56.979
	h-43.073l18.807,78.363c-21.977,3.846-50.04,6.97-83.66,6.97c-88,0-138.667-21.333-138.667-21.333s19.276,22.475,58.296,38.249
	c23.367,2.73,50.167,4.418,80.371,4.418C380.223,490.656,447.995,462.469,447.995,447.99z"/>
<linearGradient id="SVGID_1_" gradientUnits="userSpaceOnUse" x1="-39.7559" y1="636.3638" x2="-23.1294" y2="628.6101" gradientTransform="matrix(21.3333 0 0 -21.3333 996.4386 13791.5518)">
	<stop  offset="0" style="stop-color:#FFFFFF;stop-opacity:0.2"/>
	<stop  offset="1" style="stop-color:#FFFFFF;stop-opacity:0"/>
</linearGradient>
<path style="fill:url(#SVGID_1_);" d="M391.543,397.543l-71.339-196.188l21.062-189.521c0.531-4.781-2.208-9.323-6.677-11.093
	c-4.459-1.751-9.564-0.324-12.459,3.52l-128,170.667c-0.687,0.917-1.229,1.937-1.583,3.021l-73.28,219.838
	c-36.294,8.469-76.606,23.753-76.606,50.204c0,42.02,107.324,64,213.333,64c106.01,0,213.333-21.98,213.333-64
	C469.328,421.332,428.342,406.001,391.543,397.543z"/>
<g>
</g>
<g>
</g>
<g>
</g>
<g>
</g>
<g>
</g>
<g>
</g>
<g>
</g>
<g>
</g>
<g>
</g>
<g>
</g>
<g>
</g>
<g>
</g>
<g>
</g>
<g>
</g>
<g>
</g>
</svg>
